<?xml version="1.0" encoding="UTF-8" standalone="no"?>
<svg
   width="64"
   height="64"
   version="1.1"
   id="svg10"
   sodipodi:docname="mouse_button_left.svg"
   inkscape:version="1.2.2 (732a01da63, 2022-12-09)"
   xmlns:inkscape="http://www.inkscape.org/namespaces/inkscape"
   xmlns:sodipodi="http://sodipodi.sourceforge.net/DTD/sodipodi-0.dtd"
   xmlns="http://www.w3.org/2000/svg"
   xmlns:svg="http://www.w3.org/2000/svg">
  <sodipodi:namedview
     id="namedview12"
     pagecolor="#ffffff"
     bordercolor="#000000"
     borderopacity="0.25"
     inkscape:showpageshadow="2"
     inkscape:pageopacity="0.0"
     inkscape:pagecheckerboard="0"
     inkscape:deskcolor="#d1d1d1"
     showgrid="false"
     inkscape:zoom="13.078125"
     inkscape:cx="28.979689"
     inkscape:cy="32.038232"
     inkscape:window-width="1920"
     inkscape:window-height="1017"
     inkscape:window-x="-8"
     inkscape:window-y="-8"
     inkscape:window-maximized="1"
     inkscape:current-layer="g8" />
  <defs
     id="defs2" />
  <g
     id="g8">
    <path
       stroke="none"
       fill="#FFFFFF"
       d="M34 10 L44 10 Q45.75 10 46.9 10.6 49 11.75 49 15 L49 25 38 25 38 19 Q38 16.5 36.25 14.75 35.25 13.75 34 13.35 L34 10 M29.9 16.9 Q30.75 16 32 16 33.25 16 34.15 16.9 35 17.75 35 19 L35 27 34.85 28 34.15 29.15 Q33.25 30 32 30 30.75 30 29.9 29.15 29.4 28.65 29.2 28 L29 27 29 19 Q29 17.75 29.9 16.9 M15 28 L26.1 28 Q26.35 29.85 27.75 31.25 29.5 33 32 33 34.5 33 36.25 31.25 37.65 29.85 37.95 28 L49 28 49 37.5 Q48.8 44.25 44 49 39.25 53.8 32.5 54 L31.5 54 Q24.75 53.8 19.95 49 15.2 44.25 15 37.5 L15 28"
       id="path4" />
    <path
       stroke="none"
       fill="#E73246"
       d="M20 10 L30 10 30 13.35 Q28.75 13.75 27.75 14.75 26 16.5 26 19 L26 25 15 25 15 15 Q15 11.75 17.15 10.6 18.25 10 20 10"
       id="path6"
       style="fill:#3773c1;fill-opacity:1" />
  </g>
</svg>
